<?xml version="1.0" encoding="UTF-8"?>
<svg xmlns="http://www.w3.org/2000/svg" viewBox="0 0 800 400">
  <defs>
    <!-- Exact gradient matching your logo - vertical gradient from light to dark green -->
    <linearGradient id="exactGreenGradient" x1="0%" y1="0%" x2="0%" y2="100%">
      <stop offset="0%" style="stop-color:#c8d4b0;stop-opacity:1" />
      <stop offset="30%" style="stop-color:#b0c592;stop-opacity:1" />
      <stop offset="70%" style="stop-color:#8eb36e;stop-opacity:1" />
      <stop offset="100%" style="stop-color:#6b8e5a;stop-opacity:1" />
    </linearGradient>
  </defs>
  
  <!-- Outer light gray/beige border -->
  <ellipse cx="400" cy="200" rx="395" ry="195" fill="#e8e8e0" opacity="0.8"/>
  
  <!-- Dark red outer border -->
  <ellipse cx="400" cy="200" rx="385" ry="185" fill="none" stroke="#8b0000" stroke-width="8"/>
  
  <!-- White middle border -->
  <ellipse cx="400" cy="200" rx="375" ry="175" fill="none" stroke="#ffffff" stroke-width="6"/>
  
  <!-- Inner red border -->
  <ellipse cx="400" cy="200" rx="365" ry="165" fill="none" stroke="#8b0000" stroke-width="4"/>
  
  <!-- Green background with exact gradient -->
  <ellipse cx="400" cy="200" rx="355" ry="155" fill="url(#exactGreenGradient)"/>
  
  <!-- Concentric house buildings - exact match to your logo -->
  <g transform="translate(400, 95)">
    <!-- Outermost building -->
    <path d="M 0,-35 L -35,-5 L -25,-5 L -25,30 L 25,30 L 25,-5 L 35,-5 Z" fill="#8b0000" stroke="#ffffff" stroke-width="2"/>
    
    <!-- Second building -->
    <path d="M 0,-30 L -28,-2 L -20,-2 L -20,25 L 20,25 L 20,-2 L 28,-2 Z" fill="#8b0000" stroke="#ffffff" stroke-width="1.5"/>
    
    <!-- Third building -->
    <path d="M 0,-25 L -22,1 L -16,1 L -16,20 L 16,20 L 16,1 L 22,1 Z" fill="#8b0000" stroke="#ffffff" stroke-width="1"/>
    
    <!-- Innermost building -->
    <path d="M 0,-20 L -16,4 L -12,4 L -12,15 L 12,15 L 12,4 L 16,4 Z" fill="#8b0000" stroke="#ffffff" stroke-width="1"/>
    
    <!-- Window with cross -->
    <rect x="-6" y="7" width="12" height="8" fill="#ffffff"/>
    <line x1="0" y1="7" x2="0" y2="15" stroke="#8b0000" stroke-width="1.5"/>
    <line x1="-6" y1="11" x2="6" y2="11" stroke="#8b0000" stroke-width="1.5"/>
  </g>
  
  <!-- "THE VILLAGE" text - exact match -->
  <text x="400" y="180" font-family="Times, serif" font-size="64" font-weight="bold" text-anchor="middle" fill="#8b0000" stroke="#ffffff" stroke-width="2" style="font-style: italic; letter-spacing: 2px;">THE VILLAGE</text>
  
  <!-- "ITALIAN RESTAURANT" text -->
  <text x="400" y="220" font-family="Times, serif" font-size="32" font-weight="bold" text-anchor="middle" fill="#8b0000" stroke="#ffffff" stroke-width="1.5" style="letter-spacing: 3px;">ITALIAN RESTAURANT</text>
</svg> 