<?xml version="1.0" encoding="UTF-8"?>
<svg xmlns="http://www.w3.org/2000/svg" viewBox="0 0 600 300">
  <defs>
    <!-- Exact gradient to match the original logo -->
    <radialGradient id="exactGreenGradient" cx="50%" cy="40%">
      <stop offset="0%" style="stop-color:#d4e6c7;stop-opacity:1" />
      <stop offset="40%" style="stop-color:#a8c998;stop-opacity:1" />
      <stop offset="100%" style="stop-color:#6b8e5a;stop-opacity:1" />
    </radialGradient>
  </defs>
  
  <!-- Outer gray border -->
  <ellipse cx="300" cy="150" rx="295" ry="145" fill="#e8e8e8" opacity="0.7"/>
  
  <!-- Dark red outer border -->
  <ellipse cx="300" cy="150" rx="285" ry="135" fill="none" stroke="#8b0000" stroke-width="6"/>
  
  <!-- White middle border -->
  <ellipse cx="300" cy="150" rx="275" ry="125" fill="none" stroke="#ffffff" stroke-width="4"/>
  
  <!-- Inner red border -->
  <ellipse cx="300" cy="150" rx="265" ry="115" fill="none" stroke="#8b0000" stroke-width="3"/>
  
  <!-- Green background -->
  <ellipse cx="300" cy="150" rx="255" ry="105" fill="url(#exactGreenGradient)"/>
  
  <!-- Concentric house buildings (matching the original exactly) -->
  <g transform="translate(300, 65)">
    <!-- Outermost building -->
    <path d="M 0,-30 L -28,-2 L -20,-2 L -20,25 L 20,25 L 20,-2 L 28,-2 Z" fill="#8b0000" stroke="#ffffff" stroke-width="1.5"/>
    
    <!-- Middle building -->
    <path d="M 0,-25 L -22,0 L -16,0 L -16,20 L 16,20 L 16,0 L 22,0 Z" fill="#8b0000" stroke="#ffffff" stroke-width="1"/>
    
    <!-- Inner building -->
    <path d="M 0,-20 L -16,2 L -12,2 L -12,15 L 12,15 L 12,2 L 16,2 Z" fill="#8b0000" stroke="#ffffff" stroke-width="1"/>
    
    <!-- Innermost building -->
    <path d="M 0,-15 L -10,4 L -8,4 L -8,12 L 8,12 L 8,4 L 10,4 Z" fill="#8b0000" stroke="#ffffff" stroke-width="0.5"/>
    
    <!-- Window -->
    <rect x="-4" y="6" width="8" height="6" fill="#ffffff"/>
    <line x1="0" y1="6" x2="0" y2="12" stroke="#8b0000" stroke-width="1"/>
    <line x1="-4" y1="9" x2="4" y2="9" stroke="#8b0000" stroke-width="1"/>
  </g>
  
  <!-- "THE VILLAGE" text - exact styling -->
  <text x="300" y="130" font-family="Times, serif" font-size="42" font-weight="bold" text-anchor="middle" fill="#8b0000" stroke="#ffffff" stroke-width="1" style="font-style: italic;">THE VILLAGE</text>
  
  <!-- "ITALIAN RESTAURANT" text -->
  <text x="300" y="160" font-family="Times, serif" font-size="24" font-weight="bold" text-anchor="middle" fill="#8b0000" stroke="#ffffff" stroke-width="0.5" style="letter-spacing: 1px;">ITALIAN RESTAURANT</text>
</svg> 